<svg xmlns="http://www.w3.org/2000/svg" viewBox="0 0 10 11" width="10" height="11">
	<style>
		tspan { white-space:pre }
		.shp0 { fill: #747475 } 
	</style>
	<path id="-e-g_plus_icon" class="shp0" d="M9.79 4.06L8.28 4.06L8.28 2.38C8.28 2.25 8.19 2.15 8.07 2.15L7.65 2.15C7.53 2.15 7.44 2.25 7.44 2.38L7.44 4.06L5.93 4.06C5.81 4.06 5.72 4.16 5.72 4.29L5.72 4.77C5.72 4.9 5.81 5 5.93 5L7.44 5L7.44 6.68C7.44 6.81 7.53 6.91 7.65 6.91L8.07 6.91C8.19 6.91 8.28 6.81 8.28 6.68L8.28 5L9.79 5C9.91 5 10 4.9 10 4.77L10 4.29C10 4.16 9.91 4.06 9.79 4.06ZM4.72 5.53C4.41 5.28 4.12 4.92 4.11 4.8C4.11 4.6 4.13 4.5 4.54 4.14C5.08 3.68 5.37 3.06 5.37 2.42C5.37 1.83 5.21 1.31 4.94 0.94L5.15 0.94C5.19 0.94 5.24 0.93 5.27 0.9L5.87 0.42C5.94 0.36 5.97 0.26 5.94 0.16C5.91 0.07 5.83 0 5.74 0L3.09 0C2.8 0 2.51 0.06 2.22 0.17C1.25 0.54 0.57 1.46 0.57 2.4C0.57 3.73 1.5 4.74 2.74 4.77C2.72 4.88 2.71 4.98 2.71 5.09C2.71 5.29 2.75 5.49 2.85 5.67C2.84 5.67 2.83 5.67 2.82 5.67C1.63 5.67 0.57 6.32 0.16 7.28C0.05 7.53 0 7.78 0 8.03C0 8.28 0.06 8.51 0.17 8.73C0.42 9.24 0.97 9.63 1.71 9.84C2.09 9.95 2.5 10 2.92 10C3.31 10 3.67 9.95 4.01 9.84C5.06 9.5 5.74 8.64 5.74 7.64C5.74 6.69 5.46 6.11 4.72 5.53ZM1.37 7.72C1.37 7.02 2.17 6.41 3.07 6.41L3.09 6.41C3.29 6.42 3.48 6.45 3.66 6.51C3.72 6.56 3.78 6.6 3.84 6.65C4.26 6.96 4.54 7.17 4.61 7.51C4.63 7.59 4.64 7.68 4.64 7.76C4.64 8.63 4.06 9.06 2.92 9.06C2.05 9.06 1.37 8.47 1.37 7.72ZM2.2 1.16C2.34 0.98 2.52 0.88 2.73 0.88L2.75 0.88C3.34 0.9 3.9 1.63 4 2.5C4.06 2.99 3.96 3.46 3.74 3.74C3.6 3.92 3.42 4.01 3.2 4.01C3.2 4.01 3.2 4.01 3.2 4.01L3.19 4.01C2.62 3.99 2.05 3.24 1.94 2.36C1.89 1.87 1.98 1.43 2.2 1.16Z" />
</svg>