<svg xmlns="http://www.w3.org/2000/svg" viewBox="0 0 12 12" width="12" height="12">
	<style>
		tspan { white-space:pre }
		.shp0 { fill: #747475 } 
	</style>
	<path id="-e-insta_icon" class="shp0" d="M9.06 1L2.93 1C1.86 1 1 1.87 1 2.94L1 4.98L1 9.07C1 10.14 1.87 11 2.94 11L9.07 11C10.14 11 11 10.13 11 9.07L11 4.97L11 2.93C11 1.87 10.13 1 9.06 1ZM9.62 2.15L9.84 2.15L9.84 2.37L9.84 3.85L8.15 3.85L8.15 2.16L9.62 2.15ZM4.57 4.98C4.89 4.53 5.41 4.24 6 4.24C6.59 4.24 7.11 4.53 7.43 4.97C7.64 5.26 7.76 5.62 7.76 6C7.76 6.97 6.97 7.76 6 7.76C5.03 7.76 4.24 6.97 4.24 6C4.24 5.62 4.36 5.26 4.57 4.98ZM10.03 9.07C10.03 9.59 9.6 10.02 9.07 10.02L2.94 10.03C2.41 10.03 1.98 9.6 1.98 9.07L1.97 4.98L3.47 4.98C3.34 5.29 3.27 5.64 3.27 6C3.27 7.51 4.49 8.74 6 8.73C7.51 8.73 8.73 7.51 8.73 6C8.73 5.64 8.66 5.29 8.53 4.97L10.02 4.97L10.03 9.07Z" />
</svg>