<svg xmlns="http://www.w3.org/2000/svg" viewBox="0 0 10 12" width="10" height="12">
	<style>
		tspan { white-space:pre }
		.shp0 { fill: #747475 } 
	</style>
	<path id="-e-pinterest_icon" class="shp0" d="M5.24,1c-2.82,0 -4.24,1.96 -4.24,3.59c0,0.99 0.39,1.87 1.22,2.19c0.14,0.05 0.26,0 0.3,-0.14c0.03,-0.1 0.09,-0.35 0.12,-0.46c0.04,-0.14 0.02,-0.19 -0.09,-0.32c-0.24,-0.27 -0.39,-0.63 -0.39,-1.13c0,-1.45 1.12,-2.75 2.92,-2.75c1.59,0 2.47,0.94 2.47,2.2c0,1.66 -0.76,3.05 -1.88,3.05c-0.62,0 -1.09,-0.5 -0.94,-1.11c0.18,-0.73 0.52,-1.51 0.52,-2.04c0,-0.47 -0.26,-0.86 -0.8,-0.86c-0.63,0 -1.14,0.64 -1.14,1.49c0,0.54 0.19,0.91 0.19,0.91c0,0 -0.65,2.66 -0.76,3.13c-0.23,0.93 -0.03,2.07 -0.02,2.18c0.01,0.07 0.1,0.08 0.14,0.03c0.06,-0.07 0.81,-0.98 1.07,-1.88c0.07,-0.26 0.42,-1.58 0.42,-1.58c0.21,0.38 0.81,0.72 1.45,0.72c1.91,0 3.2,-1.68 3.2,-3.94c0,-1.7 -1.49,-3.29 -3.76,-3.29z" />
</svg>