<svg xmlns="http://www.w3.org/2000/svg" viewBox="0 0 10 9" width="10" height="9">
	<style>
		tspan { white-space:pre }
		.shp0 { fill: #747475 } 
	</style>
	<path id="-e-twitter_icon" class="shp0" d="M10,0.95c-0.37,0.16 -0.76,0.27 -1.18,0.32c0.42,-0.25 0.75,-0.65 0.9,-1.12c-0.4,0.23 -0.84,0.4 -1.3,0.49c-0.37,-0.39 -0.91,-0.64 -1.5,-0.64c-1.13,0 -2.05,0.9 -2.05,2.02c0,0.16 0.02,0.31 0.05,0.46c-1.7,-0.08 -3.22,-0.89 -4.23,-2.11c-0.18,0.3 -0.28,0.64 -0.28,1.02c0,0.7 0.36,1.32 0.91,1.68c-0.34,-0.01 -0.65,-0.1 -0.93,-0.25c0,0.01 0,0.02 0,0.03c0,0.98 0.71,1.79 1.65,1.98c-0.17,0.05 -0.35,0.07 -0.54,0.07c-0.13,0 -0.26,-0.01 -0.39,-0.04c0.26,0.8 1.02,1.39 1.92,1.4c-0.7,0.54 -1.59,0.86 -2.55,0.86c-0.17,0 -0.33,-0.01 -0.49,-0.03c0.91,0.57 1.99,0.91 3.14,0.91c3.77,0 5.84,-3.08 5.84,-5.75c0,-0.09 0,-0.17 -0.01,-0.26c0.4,-0.28 0.75,-0.64 1.02,-1.05z" />
</svg>