<svg xmlns="http://www.w3.org/2000/svg" viewBox="0 0 13 9" width="13" height="9">
	<style>
		tspan { white-space:pre }
		.shp0 { fill: #747475 } 
	</style>
	<path id="-e-yt_icon" class="shp0" d="M11.93 1.78C11.93 0.84 11.22 0.08 10.34 0.08C9.09 0.02 7.81 0 6.5 0C5.19 0 3.91 0.02 2.66 0.08C1.79 0.08 1.07 0.84 1.07 1.78C1.02 2.52 1 3.26 1 4C1 4.74 1.02 5.48 1.07 6.23C1.07 7.16 1.78 7.92 2.66 7.92C3.91 7.98 5.19 8 6.5 8C7.81 8 9.09 7.98 10.34 7.92C11.21 7.92 11.93 7.16 11.93 6.23C11.98 5.48 12 4.74 12 4C12 3.26 11.98 2.52 11.93 1.78ZM5.13 6.55L5.13 1.45L8.56 4L5.13 6.55Z" />
</svg>