<svg xmlns="http://www.w3.org/2000/svg" viewBox="0 0 17 17" width="17" height="17">
	<style>
		tspan { white-space:pre }
		.shp0 { fill: #929292 } 
	</style>
	<path id="-e-Search_Icon" class="shp0" d="M4.56 10.6L0 15.15L0.85 16L3.01 15.86L6.41 12.46C6.05 12.21 5.71 11.93 5.4 11.62C5.08 11.3 4.8 10.96 4.56 10.6ZM10.43 1C7.36 1 4.86 3.49 4.86 6.56C4.86 9.63 7.36 12.12 10.43 12.12C13.51 12.12 16 9.63 16 6.56C16 3.49 13.51 1 10.43 1ZM10.43 10.29C8.37 10.29 6.7 8.62 6.7 6.56C6.7 4.5 8.37 2.83 10.43 2.83C12.49 2.83 14.17 4.5 14.17 6.56C14.17 8.62 12.49 10.29 10.43 10.29Z" />
</svg>